<svg xmlns="http://www.w3.org/2000/svg" viewBox="0 0 514 509"><path d="M99.28 422.53c1.89 1.66 3.83 3.27 5.77 4.89l27.24-36.25q-2.88-2.46-5.65-5ZM374 69.52c-2.26-1.34-4.15-2.72-6.27-4.1l-24.36 32.41c2.15 1.29 4.27 2.63 6.36 4Z" fill="#57a6c8" /><path d="M122.24 440c2.12 1.39 4.24 2.77 6.41 4.11l27-35.95c-2.16-1.32-4.3-2.69-6.4-4.1ZM396.6 87.69c-1.8-1.71-3.78-3.37-5.72-5l-24 31.93q2.91 2.44 5.7 5Z" fill="#ed7801"/><path d="M416.84 108.75c-1.66-1.93-3.32-3.91-5.07-5.8l-24.2 32.17q2.54 2.94 4.94 6ZM147.51 454.43c2.3 1.16 4.61 2.22 7 3.28l27.33-36.35c-2.41-1-4.79-2-7.15-3.08Z" fill="#ef5ba1"/><path d="M349.25 54.54c-2.26-1.15-4.52-2.35-6.82-3.46L317.08 84.8q3.62 1.42 7.15 3ZM78.49 402.11c1.71 1.93 3.46 3.78 5.21 5.62l28-37.24c-1.67-2-3.31-4-4.9-6Z" fill="#fc0"/><path d="M434.68 133.05a65 65 0 0 0-4.61-6.68l-24.84 33.06q2.16 3.57 4.17 7.25ZM175.17 465.68c2.53.83 5.07 1.66 7.65 2.4l28.29-37.64q-4-.88-8-1.94Z" fill="#e36357"/><path fill="#fff" d="M406.6 159.43a182.85 182.85 0 0 0-12.72-18.32c-1.6-2-3.25-4-4.93-6a182.7 182.7 0 0 0-15-15.47q-2.79-2.57-5.7-5a183.61 183.61 0 0 0-17.14-12.81c-2.09-1.37-4.21-2.71-6.35-4a181.21 181.21 0 0 0-19.15-10q-3.54-1.59-7.15-3a181.34 181.34 0 0 0-210.29 279.62c1.59 2.05 3.23 4.06 4.9 6a182.48 182.48 0 0 0 15 15.64q2.76 2.58 5.64 5a180.89 180.89 0 0 0 17 12.89c2.1 1.41 4.24 2.78 6.4 4.1a181 181 0 0 0 19 10.12c2.36 1.08 4.74 2.1 7.15 3.08a180.46 180.46 0 0 0 21.26 7.14q4 1 8 1.94a181.91 181.91 0 0 0 39 4.22c100.14 0 181.32-81.19 181.32-181.33a180.56 180.56 0 0 0-22-86.65q-2.08-3.6-4.24-7.17Z"/><path d="M158.17 297.54a9.23 9.23 0 0 0-9.73-8.3c-8.11 0-12.17 7.19-12.22 14.48s3.92 14.57 12 14.61a10.22 10.22 0 0 0 10.09-9.63h4.2a13.83 13.83 0 0 1-14.34 13.09c-10.56 0-16.28-8.35-16.18-18.17s5.85-18 16.46-17.93a12.87 12.87 0 0 1 13.83 11.8ZM197.4 304.22c0 9.78-5.85 18-16.46 17.94s-16.27-8.39-16.18-18.44 5.86-18 16.46-17.94 16.27 8.62 16.18 18.44ZM169 304c0 7.29 3.91 14.57 12 14.66s12.31-7.28 12.31-14.47-3.92-14.57-12-14.62S169 296.71 169 304ZM201.78 287.17H206v5.76a11.69 11.69 0 0 1 11.11-6.82c9.68 0 12.58 5.11 12.54 13.27v21.95h-4.06V300c0-5.86-1.84-10.33-8.67-10.37a10.83 10.83 0 0 0-11 10.71 6.77 6.77 0 0 0 0 .9v19.92h-4.25ZM256.37 297.54c0-5.16-4.15-7.52-9.22-7.56-3.74 0-8.16 1.38-8.21 5.81 0 3.73 4.29 5.07 7.15 5.81l5.62 1.29c4.61.78 9.82 3.59 9.77 9.54 0 7.42-7.51 10.19-13.83 10.14-8 0-13.46-3.78-14.1-12.12h4.24a9.22 9.22 0 0 0 9.8 8.6h.29c4 0 9.22-1.66 9.5-6.41 0-4-3.69-5.3-7.51-6.27l-5.4-1.19c-5.48-1.53-9.63-3.42-9.59-9.22 0-7 7-9.55 13.05-9.5a11.33 11.33 0 0 1 12.68 11.11ZM268.31 305.84c0 6.08 3.18 13.46 11.29 13.51a10.46 10.46 0 0 0 10.88-8.63h4.24a13.83 13.83 0 0 1-15.16 12.13c-11 0-15.54-8.44-15.45-18.16 0-9 4.61-18 15.72-17.94s15.45 9.73 15 19.32Zm22.4-3.32a11.57 11.57 0 0 0-10.84-12.26h-.08a12.19 12.19 0 0 0-11.44 11.9ZM298.69 287.9h3.87v8a12.83 12.83 0 0 1 13.14-8.4v4.2a11.8 11.8 0 0 0-12.9 10.59 11.27 11.27 0 0 0-.05 1.54v18.47h-4.2Z" fill="#979695"/><path d="M328 288.32h7v3.5h-7.05v23.05c0 2.68.37 4.29 3.36 4.61a30.88 30.88 0 0 0 3.6 0V323h-3.81c-5.63 0-7.52-1.93-7.42-7.74V292h-5.9v-3.5h6v-10.32H328ZM370.89 305.47c0 9.82-5.91 18-16.46 17.93s-16.28-8.4-16.23-18.16 5.9-18 16.46-17.94 16.27 8.39 16.23 18.17Zm-28.45 0c0 7.28 3.87 14.57 12 14.61s12.17-7.19 12.21-14.43-3.87-14.61-12-14.66-12.17 7-12.22 14.29Z" fill="#e85296"/><path d="M134.88 342.88V347h-2.42v-11.69h4.23a8.25 8.25 0 0 1 2.25.27 4.52 4.52 0 0 1 1.57.77 3 3 0 0 1 .92 1.18 3.72 3.72 0 0 1 .3 1.5 3.82 3.82 0 0 1-.32 1.56 3.23 3.23 0 0 1-.94 1.21 4.54 4.54 0 0 1-1.57.79 7.64 7.64 0 0 1-2.21.29Zm0-1.7h1.81a4 4 0 0 0 1.16-.15 2.21 2.21 0 0 0 .82-.43 1.75 1.75 0 0 0 .48-.68 2.28 2.28 0 0 0 .16-.89 2.15 2.15 0 0 0-.16-.85 1.69 1.69 0 0 0-.48-.64 2.18 2.18 0 0 0-.82-.41 4.05 4.05 0 0 0-1.16-.14h-1.81ZM157.77 341.15a6.05 6.05 0 0 1-.47 2.38 5.66 5.66 0 0 1-1.34 1.89 6.23 6.23 0 0 1-2.07 1.25 8.24 8.24 0 0 1-5.37 0 6.22 6.22 0 0 1-2.09-1.25 5.66 5.66 0 0 1-1.34-1.89 6.26 6.26 0 0 1 0-4.76 5.8 5.8 0 0 1 1.34-1.9 6.2 6.2 0 0 1 2.09-1.24 8.24 8.24 0 0 1 5.37 0 6.23 6.23 0 0 1 2.07 1.25 5.66 5.66 0 0 1 1.34 1.89 6 6 0 0 1 .47 2.38Zm-2.47 0a4.94 4.94 0 0 0-.29-1.73 3.55 3.55 0 0 0-.81-1.29 3.44 3.44 0 0 0-1.29-.82 4.79 4.79 0 0 0-1.71-.28 4.87 4.87 0 0 0-1.71.28 3.5 3.5 0 0 0-2.12 2.11 4.94 4.94 0 0 0-.29 1.73 4.88 4.88 0 0 0 .29 1.72 3.5 3.5 0 0 0 2.12 2.11 5.11 5.11 0 0 0 1.71.28 5 5 0 0 0 1.71-.28 3.44 3.44 0 0 0 1.29-.82 3.55 3.55 0 0 0 .81-1.29 4.88 4.88 0 0 0 .29-1.72ZM168.35 337.43a.56.56 0 0 1-.23.25.58.58 0 0 1-.3.07.9.9 0 0 1-.41-.12l-.53-.28a5.54 5.54 0 0 0-.71-.28 3.47 3.47 0 0 0-1-.12 2.87 2.87 0 0 0-.87.11 1.84 1.84 0 0 0-.63.3 1.19 1.19 0 0 0-.38.46 1.32 1.32 0 0 0-.13.6 1 1 0 0 0 .26.68 2.05 2.05 0 0 0 .68.47 6.26 6.26 0 0 0 1 .35l1.1.33a11.14 11.14 0 0 1 1.1.4 4.23 4.23 0 0 1 1 .58 2.7 2.7 0 0 1 .67.86 2.74 2.74 0 0 1 .26 1.24 3.66 3.66 0 0 1-.3 1.48A3.33 3.33 0 0 1 168 346a4.24 4.24 0 0 1-1.41.81 5.69 5.69 0 0 1-1.92.3 7.1 7.1 0 0 1-1.22-.11 8.44 8.44 0 0 1-1.15-.31 6.52 6.52 0 0 1-1-.49 5.16 5.16 0 0 1-.86-.63l.7-1a.88.88 0 0 1 .24-.19.62.62 0 0 1 .31-.08.9.9 0 0 1 .48.17l.62.37a5 5 0 0 0 .83.36 3.59 3.59 0 0 0 1.16.17 2.55 2.55 0 0 0 1.59-.44 1.5 1.5 0 0 0 .57-1.26 1.13 1.13 0 0 0-.26-.76 2 2 0 0 0-.67-.48 5 5 0 0 0-1-.34l-1.09-.3a10.07 10.07 0 0 1-1.09-.39 3.35 3.35 0 0 1-1-.59 2.55 2.55 0 0 1-.68-.9 3.22 3.22 0 0 1-.26-1.35 3 3 0 0 1 .28-1.24 3.2 3.2 0 0 1 .83-1.08 4.27 4.27 0 0 1 1.33-.75 5.33 5.33 0 0 1 1.81-.28 6.76 6.76 0 0 1 2.11.32 5 5 0 0 1 1.66.91ZM175.32 336.28a1 1 0 0 1-.12.49 1.49 1.49 0 0 1-.31.4 1.68 1.68 0 0 1-.45.27 1.74 1.74 0 0 1-.56.1 1.62 1.62 0 0 1-.54-.1 1.33 1.33 0 0 1-.75-.67 1.14 1.14 0 0 1-.11-.49 1.25 1.25 0 0 1 .11-.5 1.5 1.5 0 0 1 .3-.4 1.68 1.68 0 0 1 .45-.27 1.4 1.4 0 0 1 .54-.1 1.5 1.5 0 0 1 .56.1 1.68 1.68 0 0 1 .45.27 1.35 1.35 0 0 1 .31.4 1.11 1.11 0 0 1 .12.5Zm-.32 2.42v8.3h-2.22v-8.3ZM188.48 335.31v1.78h-3.9V347h-2.42v-9.9h-3.92v-1.78ZM194.31 336.28a1 1 0 0 1-.12.49 1.49 1.49 0 0 1-.31.4 1.68 1.68 0 0 1-.45.27 1.74 1.74 0 0 1-.56.1 1.62 1.62 0 0 1-.54-.1 1.33 1.33 0 0 1-.75-.67 1.14 1.14 0 0 1-.11-.49 1.25 1.25 0 0 1 .11-.5 1.5 1.5 0 0 1 .3-.4 1.68 1.68 0 0 1 .45-.27 1.4 1.4 0 0 1 .54-.1 1.5 1.5 0 0 1 .56.1 1.68 1.68 0 0 1 .45.27 1.35 1.35 0 0 1 .31.4 1.11 1.11 0 0 1 .12.5Zm-.31 2.42v8.3h-2.22v-8.3ZM197.05 335.31H199a.88.88 0 0 1 .51.13 1 1 0 0 1 .3.36l3.05 7.12c.1.24.2.49.29.77s.18.57.27.87a8.34 8.34 0 0 1 .51-1.64l3-7.12a.83.83 0 0 1 .29-.34.85.85 0 0 1 .51-.15h1.95l-5.2 11.69h-2.19ZM221 335.31V337h-5.75v3.23h4.53V342h-4.53v3.3H221v1.7h-8.2v-11.69ZM239.13 335.31v1.78h-3.91V347h-2.41v-9.9h-3.92v-1.78ZM250.57 335.31V337h-5.75v3.23h4.53V342h-4.53v3.3h5.75v1.7h-8.19v-11.69ZM263.3 344.23a.48.48 0 0 1 .34.14l1 .93a5.18 5.18 0 0 1-2 1.35 7.39 7.39 0 0 1-2.77.47 7 7 0 0 1-2.59-.45 5.73 5.73 0 0 1-2-1.23 5.32 5.32 0 0 1-1.26-1.89 6.52 6.52 0 0 1-.43-2.4 5.93 5.93 0 0 1 .48-2.41 5.6 5.6 0 0 1 1.37-1.89 6.16 6.16 0 0 1 2.1-1.23 8.06 8.06 0 0 1 2.71-.44 7.16 7.16 0 0 1 2.52.41 6 6 0 0 1 1.86 1.11l-.81 1a1 1 0 0 1-.18.17.68.68 0 0 1-.31.07.77.77 0 0 1-.43-.15 5.7 5.7 0 0 0-.54-.31 4.3 4.3 0 0 0-2.13-.46 4.78 4.78 0 0 0-1.68.28 4 4 0 0 0-1.32.82 3.65 3.65 0 0 0-.86 1.3 4.47 4.47 0 0 0-.31 1.72 4.59 4.59 0 0 0 .31 1.75 3.67 3.67 0 0 0 2.08 2.1 4.39 4.39 0 0 0 1.55.27 8.09 8.09 0 0 0 .89 0 5.06 5.06 0 0 0 .74-.16 3.52 3.52 0 0 0 .63-.27 3.56 3.56 0 0 0 .6-.41 1.18 1.18 0 0 1 .19-.11.5.5 0 0 1 .25-.08ZM279.09 347h-2.43v-5.11h-6.09V347h-2.43v-11.69h2.43v5h6.09v-5h2.43ZM285 335.32a.59.59 0 0 1 .19.05.75.75 0 0 1 .17.1l.18.18 6.81 7.82a5.54 5.54 0 0 1-.05-.56v-7.6h2.13V347h-1.25a1.24 1.24 0 0 1-.47-.08 1.07 1.07 0 0 1-.37-.29l-6.78-7.78V347h-2.13v-11.69H285ZM311.17 341.15a6.05 6.05 0 0 1-.47 2.38 5.66 5.66 0 0 1-1.34 1.89 6.23 6.23 0 0 1-2.07 1.25 8.24 8.24 0 0 1-5.37 0 6.22 6.22 0 0 1-2.09-1.25 5.66 5.66 0 0 1-1.34-1.89 6.26 6.26 0 0 1 0-4.76 5.8 5.8 0 0 1 1.34-1.9 6.2 6.2 0 0 1 2.09-1.24 8.24 8.24 0 0 1 5.37 0 6.23 6.23 0 0 1 2.07 1.25 5.66 5.66 0 0 1 1.34 1.89 6 6 0 0 1 .47 2.38Zm-2.47 0a4.94 4.94 0 0 0-.29-1.73 3.55 3.55 0 0 0-.81-1.29 3.44 3.44 0 0 0-1.29-.82 4.79 4.79 0 0 0-1.71-.28 4.87 4.87 0 0 0-1.71.28 3.5 3.5 0 0 0-2.12 2.11 4.94 4.94 0 0 0-.29 1.73 4.88 4.88 0 0 0 .29 1.72 3.5 3.5 0 0 0 2.12 2.11 5.11 5.11 0 0 0 1.71.28 5 5 0 0 0 1.71-.28 3.44 3.44 0 0 0 1.29-.82 3.55 3.55 0 0 0 .81-1.29 4.88 4.88 0 0 0 .29-1.72ZM317.21 345.19h5.2V347h-7.61v-11.69h2.41ZM337.53 341.15a6.05 6.05 0 0 1-.47 2.38 5.66 5.66 0 0 1-1.34 1.89 6.28 6.28 0 0 1-2.08 1.25 7.61 7.61 0 0 1-2.68.45 7.71 7.71 0 0 1-2.69-.45 6.28 6.28 0 0 1-2.08-1.25 5.52 5.52 0 0 1-1.34-1.89 6.14 6.14 0 0 1 0-4.76 5.66 5.66 0 0 1 1.34-1.9 6.25 6.25 0 0 1 2.08-1.24 7.71 7.71 0 0 1 2.69-.45 7.61 7.61 0 0 1 2.68.45 6.28 6.28 0 0 1 2.08 1.25 5.66 5.66 0 0 1 1.34 1.89 6 6 0 0 1 .47 2.38Zm-2.48 0a4.94 4.94 0 0 0-.28-1.73 3.55 3.55 0 0 0-.81-1.29 3.44 3.44 0 0 0-1.29-.82A4.79 4.79 0 0 0 331 337a4.87 4.87 0 0 0-1.71.28 3.56 3.56 0 0 0-1.3.82 3.44 3.44 0 0 0-.82 1.29 4.94 4.94 0 0 0-.29 1.73 4.88 4.88 0 0 0 .29 1.72 3.44 3.44 0 0 0 .82 1.29 3.56 3.56 0 0 0 1.3.82 5.11 5.11 0 0 0 1.71.28 5 5 0 0 0 1.71-.28 3.44 3.44 0 0 0 1.29-.82 3.55 3.55 0 0 0 .81-1.29 4.89 4.89 0 0 0 .24-1.69ZM347.12 345.39a6.63 6.63 0 0 0 1.42-.14 6.16 6.16 0 0 0 1.15-.36v-2.13h-1.62a.58.58 0 0 1-.37-.11.38.38 0 0 1-.14-.29v-1.23h4.32v4.73a7.88 7.88 0 0 1-1 .56 6.36 6.36 0 0 1-1.14.39 9.58 9.58 0 0 1-1.29.23 13.82 13.82 0 0 1-1.49.08 7.3 7.3 0 0 1-2.61-.45 6.29 6.29 0 0 1-2.07-1.23 5.71 5.71 0 0 1-1.36-1.89 6.23 6.23 0 0 1 0-4.82 5.55 5.55 0 0 1 1.35-1.89 6.23 6.23 0 0 1 2.12-1.23 8.48 8.48 0 0 1 2.8-.43 8.07 8.07 0 0 1 2.75.42 6.65 6.65 0 0 1 2 1.1l-.7 1a.64.64 0 0 1-.55.3.85.85 0 0 1-.44-.13l-.58-.31a4.06 4.06 0 0 0-.67-.26 5.37 5.37 0 0 0-.81-.19 6.59 6.59 0 0 0-1.05-.07 4.81 4.81 0 0 0-1.74.29 3.75 3.75 0 0 0-1.32.83 3.69 3.69 0 0 0-.84 1.3 4.6 4.6 0 0 0-.3 1.7 5 5 0 0 0 .31 1.79 3.77 3.77 0 0 0 .88 1.33 3.88 3.88 0 0 0 1.35.83 5 5 0 0 0 1.64.28ZM358.42 336.28a1.14 1.14 0 0 1-.11.49 1.49 1.49 0 0 1-.31.4 1.6 1.6 0 0 1-.46.27 1.56 1.56 0 0 1-1.1 0 1.62 1.62 0 0 1-.44-.27 1.27 1.27 0 0 1-.3-.4 1 1 0 0 1-.11-.49 1.1 1.1 0 0 1 .11-.5 1.17 1.17 0 0 1 .3-.4 1.62 1.62 0 0 1 .44-.27 1.56 1.56 0 0 1 1.1 0 1.6 1.6 0 0 1 .46.27 1.35 1.35 0 0 1 .31.4 1.25 1.25 0 0 1 .11.5Zm-.33 2.42v8.3h-2.22v-8.3ZM370.63 335.31V337h-5.75v3.23h4.53V342h-4.53v3.3h5.75v1.7h-8.19v-11.69Z" fill="#979797"/><path fill="#ea5297" d="M294.84 229.07c5.3 12 6 21.1 1.78 25.06-1.68 1.59-4.19 2.39-7.47 2.36-8.7-.06-21.35-5.85-34.63-15.33-1.66 1.33-3.32 2.6-5 3.83 14.86 10.9 29.1 17.34 39.57 17.41 4.89 0 8.81-1.31 11.66-4 8.05-7.64 4.1-21.68-.63-32.12a126.55 126.55 0 0 0-11.62-19.91c-1.22 1.63-2.5 3.25-3.81 4.87a115.13 115.13 0 0 1 10.15 17.83Z"/><path d="M230.55 220.45a193.54 193.54 0 0 1-13-14.75q-1.91 2.45-3.68 4.89c3.81 4.76 8 9.46 12.32 14 4.79 4.91 9.68 9.46 14.58 13.57 1.64-1.17 3.3-2.4 4.95-3.67a187.47 187.47 0 0 1-15.17-14.04Z" fill="#e85296"/><path d="M265 220.7c-20.86 20.82-45.17 35.28-59.13 35.18-3.27 0-5.77-.86-7.43-2.47-2.43-2.38-3.14-6.53-2.2-12a13.69 13.69 0 0 1-5.7-1.93c-1.55 7.95-.33 14.19 3.69 18.12 2.8 2.74 6.71 4.14 11.6 4.18 15.94.12 40.83-14.38 63.42-36.93A178.7 178.7 0 0 0 292.92 196a13.58 13.58 0 0 1-5.25-2.86A174 174 0 0 1 265 220.7ZM297.35 154.62c2.85 2.79 3.35 8 1.56 14.93a13.75 13.75 0 0 1 5.59 2.2c2.57-9.49 1.61-16.89-2.94-21.33-2.8-2.74-6.7-4.15-11.6-4.19-10.47-.07-24.8 6.16-39.82 16.83 1.64 1.25 3.29 2.55 4.93 3.9 13.41-9.27 26.14-14.88 34.85-14.81 3.28.02 5.78.85 7.43 2.47ZM230.79 187.32a187.61 187.61 0 0 1 15.42-13.77c-1.63-1.3-3.27-2.55-4.9-3.74a197.87 197.87 0 0 0-14.77 13.35 175.87 175.87 0 0 0-25.45 31.64 13.71 13.71 0 0 1 5.35 2.68 170.49 170.49 0 0 1 24.35-30.16Z" fill="#989797"/><path d="M296.84 171.59A11.36 11.36 0 1 0 308.26 183a11.44 11.44 0 0 0-11.42-11.41Zm-.14 19a7.67 7.67 0 1 1 7.82-7.61 7.72 7.72 0 0 1-7.82 7.64ZM197.79 216.59A11.36 11.36 0 1 0 209.21 228a11.42 11.42 0 0 0-11.42-11.41Zm-.14 19.14a7.89 7.89 0 0 1-7.71-7.84 7.77 7.77 0 0 1 15.53.11 7.88 7.88 0 0 1-7.82 7.73ZM269.51 183.48c-22.26-22.88-46.94-37.74-62.88-37.86-4.89 0-8.81 1.32-11.66 4-8.05 7.65-4.1 21.69.63 32.12a126.1 126.1 0 0 0 11.62 19.91c1.22-1.62 2.5-3.25 3.81-4.87A115.13 115.13 0 0 1 200.9 179c-5.3-12-6-21.09-1.77-25 1.67-1.59 4.18-2.39 7.46-2.37 14 .11 38.06 14.93 58.6 36.05a189.41 189.41 0 0 1 13 14.74q1.91-2.44 3.68-4.88c-3.87-4.86-7.99-9.54-12.36-14.06Z" fill="#e85296"/></svg>